<svg version="1.0" xmlns="http://www.w3.org/2000/svg"
  viewBox="0 0 1200.480499 1141.403475"
 preserveAspectRatio="xMidYMid meet">
<metadata>
For more coloring pages, please visit ColoringAll.com
</metadata>
<g transform="translate(-0.227068,1142.403475) scale(0.100000,-0.100000)"
fill="#cc4100" stroke="none">
<path d="M11010 11419 c-228 -11 -417 -57 -543 -131 -275 -161 -579 -509 -796
-908 -166 -303 -185 -337 -218 -377 -19 -24 -43 -43 -53 -43 -10 0 -72 39
-137 87 -340 249 -667 416 -1083 554 -297 98 -406 113 -915 130 -434 14 -4457
6 -4700 -10 -310 -19 -384 -35 -539 -112 -440 -219 -611 -606 -465 -1052 64
-196 161 -358 363 -602 l115 -140 1 -2426 0 -2427 -183 -174 c-299 -286 -462
-426 -925 -797 -326 -261 -442 -361 -574 -494 -237 -239 -334 -420 -354 -659
-27 -334 206 -669 587 -847 157 -73 459 -169 459 -146 0 10 -48 100 -133 248
-93 162 -140 265 -169 371 -22 84 -23 184 -3 232 45 108 312 282 833 543 226
113 378 181 406 181 34 0 56 -38 56 -94 0 -203 -96 -450 -301 -776 -153 -244
-251 -465 -295 -666 -24 -110 -24 -326 0 -413 33 -123 103 -229 209 -320 119
-102 194 -119 576 -131 157 -5 1717 -10 3465 -10 l3179 0 156 86 c293 163 477
305 705 547 513 544 952 1268 1203 1987 146 417 288 988 352 1410 63 417 76
634 75 1230 -1 644 -16 861 -85 1220 -86 443 -275 1022 -506 1545 -176 397
-405 817 -575 1051 -144 198 -153 216 -151 303 4 182 104 513 233 771 69 138
111 200 194 288 122 128 202 173 337 187 73 8 161 -8 453 -81 215 -54 353 -67
430 -41 130 44 290 232 312 363 13 81 -60 226 -167 335 -113 115 -307 192
-514 204 -49 3 -108 7 -130 8 -22 2 -105 0 -185 -4z m320 -125 c198 -31 365
-109 469 -218 54 -58 81 -108 81 -149 0 -42 -71 -169 -124 -223 -66 -66 -111
-78 -249 -71 -58 3 -134 14 -177 26 -233 66 -352 93 -440 98 -236 14 -390 -60
-585 -284 -148 -169 -244 -341 -329 -590 -147 -432 -177 -755 -216 -2343 -33
-1345 -50 -1513 -187 -1875 -139 -366 -276 -544 -673 -876 -302 -252 -558
-434 -603 -427 -23 3 -22 0 -81 188 -41 128 -87 205 -104 173 -16 -30 -31
-118 -56 -348 -30 -264 -43 -324 -135 -610 -112 -349 -130 -448 -151 -860 -17
-337 -30 -425 -75 -500 -24 -42 -177 -195 -195 -195 -27 0 -34 48 -33 240 1
210 12 366 45 695 14 138 22 275 21 400 0 221 -10 274 -100 540 -54 159 -79
209 -94 183 -4 -7 -10 -115 -14 -239 l-8 -227 -130 -32 c-323 -78 -487 -105
-501 -81 -3 5 3 37 15 72 27 85 46 238 55 439 7 164 6 166 -19 215 -14 28 -48
82 -75 120 -57 80 -199 245 -212 245 -5 0 21 -72 56 -159 79 -194 94 -260 94
-419 0 -440 -90 -655 -529 -1262 -50 -69 -107 -155 -126 -191 l-35 -67 0 -270
0 -271 -52 -5 c-29 -3 -107 -8 -173 -11 -66 -3 -132 -8 -147 -11 l-28 -6 0
219 c0 324 8 349 161 544 171 217 268 390 345 614 33 96 37 122 38 206 1 97 1
97 -49 195 -40 81 -65 115 -135 185 -90 92 -135 120 -227 144 -72 19 -114 19
-139 1 -19 -14 -19 -15 0 -50 10 -20 55 -61 105 -99 146 -109 181 -153 181
-228 0 -128 -173 -227 -523 -299 -175 -36 -495 -80 -578 -80 l-46 0 -7 46 c-3
26 -6 512 -6 1080 l0 1033 93 57 c197 123 428 220 622 263 221 49 300 55 700
56 407 0 404 0 610 -57 124 -34 269 -86 595 -213 484 -189 592 -214 780 -185
195 31 356 124 545 314 246 248 484 656 610 1047 94 294 135 595 165 1224 31
651 75 1003 176 1407 124 499 339 938 633 1289 224 269 505 448 764 490 69 11
289 2 407 -17z m-3995 -914 c267 -11 404 -30 600 -80 232 -59 408 -128 644
-251 334 -175 691 -434 721 -523 8 -26 7 -63 -4 -157 -20 -165 -50 -492 -86
-954 -67 -847 -106 -1151 -176 -1366 -95 -294 -265 -627 -411 -806 l-38 -46
-6 74 c-4 41 -7 162 -8 269 -3 509 -51 916 -146 1245 -87 302 -190 497 -348
662 -96 100 -192 168 -339 238 -170 81 -316 119 -568 146 -259 28 -2241 19
-2480 -12 -136 -17 -212 -51 -345 -154 -19 -15 -19 -40 -26 -1238 -4 -672 -8
-2181 -10 -3354 l-4 -2131 69 -55 c98 -78 132 -86 426 -99 284 -13 2398 5
2559 22 142 15 216 36 326 90 236 116 422 320 570 625 190 387 275 806 315
1540 6 110 13 205 15 211 2 6 77 63 167 127 342 242 488 363 625 517 228 256
379 570 487 1010 81 329 84 383 106 1925 10 663 15 802 31 827 42 64 449 -722
662 -1277 161 -422 267 -820 311 -1171 63 -498 58 -1565 -10 -2114 -60 -486
-254 -1147 -495 -1689 -312 -699 -720 -1312 -1117 -1674 -187 -171 -323 -263
-550 -373 l-134 -65 -2861 -5 c-2953 -6 -3611 -1 -3725 30 -105 29 -184 94
-225 185 -30 66 -29 242 1 364 44 177 151 418 377 847 l125 238 0 3515 0 3515
-121 128 c-187 199 -324 394 -379 540 -97 261 53 544 344 650 80 29 269 42
743 53 490 11 4132 12 4388 1z m-270 -1870 c238 -13 321 -27 412 -69 206 -97
422 -320 543 -561 75 -151 104 -258 134 -505 45 -364 95 -1253 81 -1442 -7
-90 -9 -97 -41 -133 -18 -20 -62 -52 -96 -71 -62 -33 -66 -34 -178 -33 -135 1
-184 14 -478 125 -546 208 -775 282 -1036 336 -124 26 -145 27 -396 27 -250 0
-272 -2 -395 -27 -307 -65 -529 -135 -779 -246 -76 -34 -148 -61 -160 -59 -15
2 -23 13 -29 43 -25 129 -14 2043 13 2355 14 149 23 182 64 218 33 29 65 38
201 56 65 9 1943 -3 2140 -14z m-5031 -4907 c3 -42 6 -279 6 -527 l0 -451
-207 -104 c-299 -148 -631 -324 -758 -400 -318 -191 -495 -374 -495 -512 0
-64 38 -180 121 -371 38 -88 69 -164 69 -169 0 -6 -35 8 -77 32 -267 145 -437
310 -512 494 -66 163 -18 373 142 619 132 202 255 314 872 797 116 90 329 263
475 384 303 252 343 284 351 285 3 0 9 -34 13 -77z m5344 41 c19 -13 22 -24
22 -84 0 -123 -117 -1410 -129 -1423 -11 -11 -201 -21 -244 -13 -46 9 -47 19
-11 164 35 146 61 304 74 453 15 169 2 303 -55 547 -58 250 -58 255 2 286 29
14 215 66 283 79 14 2 27 5 30 6 3 0 16 -6 28 -15z m-1487 -55 c18 -35 1 -104
-52 -208 -46 -90 -110 -180 -278 -396 -84 -107 -133 -204 -162 -317 -17 -68
-22 -125 -26 -316 l-6 -234 -174 4 c-173 3 -175 3 -195 28 -18 22 -20 34 -14
107 12 160 124 547 233 803 79 186 131 260 237 338 58 43 383 211 408 212 10
0 22 -10 29 -21z m2239 -121 c-23 -140 -83 -389 -105 -439 l-14 -34 -1 32 c0
66 75 402 127 568 16 50 12 -15 -7 -127z m-1324 7 c102 -108 152 -343 141
-655 -7 -173 -25 -293 -86 -551 l-33 -136 -171 -6 c-95 -4 -272 -7 -394 -7
l-223 0 0 78 c1 42 5 146 10 230 8 139 11 159 38 217 53 113 222 355 421 604
133 168 222 261 246 261 10 0 33 -16 51 -35z m-1682 -186 c7 -7 -8 -56 -74
-234 -70 -189 -152 -479 -185 -655 -30 -158 -49 -237 -65 -260 -7 -11 -33 -16
-94 -19 l-86 -3 5 458 c6 539 9 604 30 644 20 38 56 62 109 71 48 8 352 7 360
-2z M11328 11064 c-36 -19 -58 -63 -58 -114 0 -33 6 -48 30 -72 28 -27 36 -30
77 -25 55 6 97 35 101 70 5 40 -27 96 -71 128 -46 33 -43 33 -79 13z M6398
7463 c-24 -28 -43 -70 -83 -183 -54 -155 -95 -308 -95 -353 0 -39 0 -40 20
-22 30 27 174 325 210 434 26 76 30 99 21 118 -13 28 -51 31 -73 6z M5199
7366 c-10 -22 -7 -30 30 -73 67 -80 308 -289 372 -324 24 -12 33 5 18 33 -50
96 -343 388 -390 388 -11 0 -24 -11 -30 -24z M7276 7139 c-52 -35 -210 -201
-241 -254 -11 -18 -16 -37 -12 -41 29 -29 367 230 367 280 0 16 -37 46 -56 46
-6 0 -32 -14 -58 -31z M10316 214 c-10 -47 -15 -88 -12 -91 5 -6 9 7 30 110 7
37 10 67 6 67 -4 0 -15 -39 -24 -86z M10630 290 c0 -5 5 -10 10 -10 6 0 10 5
10 10 0 6 -4 10 -10 10 -5 0 -10 -4 -10 -10z M11176 214 c-10 -47 -15 -88 -12
-91 5 -6 9 7 30 110 7 37 10 67 6 67 -4 0 -15 -39 -24 -86z M11256 289 c-3 -8
-10 -41 -16 -74 -6 -33 -14 -68 -16 -77 -3 -10 -1 -18 3 -18 10 0 46 171 38
178 -2 3 -7 -1 -9 -9z M10019 261 c-38 -38 -41 -101 -7 -125 29 -20 79 -20
104 0 18 14 18 15 1 10 -53 -17 -69 -17 -92 -2 -69 45 21 166 94 126 12 -6 21
-7 21 -1 0 12 -25 21 -62 21 -19 0 -39 -10 -59 -29z M11020 209 c-28 -45 -49
-83 -47 -85 2 -3 12 7 21 21 14 21 24 25 66 25 43 0 50 -3 50 -19 0 -11 5 -23
10 -26 6 -3 10 -3 10 1 0 20 -44 164 -51 164 -4 0 -30 -37 -59 -81z m75 4 l7
-33 -42 0 c-42 0 -42 0 -28 23 8 12 21 32 29 44 15 25 22 18 34 -34z M10170
230 c-22 -22 -27 -79 -8 -98 19 -19 66 -14 88 8 22 22 27 79 8 98 -19 19 -66
14 -88 -8z m71 0 c25 -14 25 -54 -1 -80 -23 -23 -33 -24 -61 -10 -25 14 -25
54 1 80 23 23 33 24 61 10z M10380 230 c-22 -22 -27 -79 -8 -98 19 -19 66 -14
88 8 22 22 27 79 8 98 -19 19 -66 14 -88 -8z m71 0 c25 -14 25 -54 -1 -80 -23
-23 -33 -24 -61 -10 -25 14 -25 54 1 80 23 23 33 24 61 10z M10526 224 c-3
-16 -8 -47 -11 -69 -8 -51 10 -26 19 27 5 27 15 42 34 53 18 10 22 14 10 15
-9 0 -20 -5 -24 -11 -5 -8 -9 -8 -14 1 -5 8 -10 3 -14 -16z M10627 243 c-2 -4
-7 -26 -11 -48 -4 -22 -9 -48 -12 -57 -3 -10 -1 -18 4 -18 4 0 14 28 20 62 11
58 10 81 -1 61z M10685 240 c-1 -3 -5 -23 -9 -45 -4 -22 -9 -48 -12 -57 -3
-10 -1 -18 4 -18 5 0 13 20 17 45 7 53 44 87 74 68 17 -11 19 -28 8 -80 -4
-18 -3 -33 2 -33 16 0 24 99 11 115 -12 14 -87 18 -95 5z M10850 230 c-22 -22
-27 -79 -8 -98 7 -7 24 -12 38 -12 14 0 31 5 38 12 9 9 12 8 12 -5 0 -9 -12
-24 -26 -34 -21 -13 -32 -15 -55 -6 -16 6 -29 8 -29 3 0 -24 81 -27 102 -2 18
19 50 162 37 162 -5 0 -9 -5 -9 -10 0 -7 -6 -7 -19 0 -30 16 -59 12 -81 -10z
m71 0 c29 -16 25 -65 -6 -86 -56 -37 -103 28 -55 76 23 23 33 24 61 10z
M11351 231 c-23 -23 -28 -80 -9 -99 19 -19 88 -13 88 9 0 5 -11 4 -24 -2 -54
-25 -89 38 -46 81 23 23 33 24 62 9 16 -9 19 -8 16 3 -8 22 -64 22 -87 -1z
M11480 230 c-22 -22 -27 -79 -8 -98 19 -19 66 -14 88 8 22 22 27 79 8 98 -19
19 -66 14 -88 -8z m71 0 c25 -14 25 -54 -1 -80 -23 -23 -33 -24 -61 -10 -25
14 -25 54 1 80 23 23 33 24 61 10z M11626 221 c-3 -14 -8 -44 -11 -66 -8 -51
10 -26 19 27 8 41 35 63 66 53 22 -7 24 -21 11 -77 -5 -22 -5 -38 0 -38 5 0 9
6 9 13 0 68 51 125 85 97 15 -13 15 -35 -1 -92 -3 -10 -1 -18 4 -18 6 0 13 23
17 50 9 63 -5 84 -49 76 -17 -4 -35 -6 -41 -6 -101 8 -104 7 -109 -19z M11270
130 c0 -5 5 -10 10 -10 6 0 10 5 10 10 0 6 -4 10 -10 10 -5 0 -10 -4 -10 -10z"/>
</g>
</svg>
