<svg version="1.0" xmlns="http://www.w3.org/2000/svg"
  viewBox="0 0 954.971738 1200.783214"
 preserveAspectRatio="xMidYMid meet">
<metadata>
For more coloring pages, please visit ColoringAll.com
</metadata>
<g transform="translate(-0.022410,1200.904842) scale(0.100000,-0.100000)"
fill="#000000" stroke="none">
<path d="M2475 11995 c-185 -30 -451 -100 -608 -161 -193 -74 -347 -170 -563
-351 -269 -224 -307 -238 -714 -263 -309 -19 -437 -42 -515 -91 -78 -49 -96
-133 -49 -227 56 -112 180 -156 619 -217 528 -73 965 -204 1450 -434 156 -74
258 -135 311 -183 43 -40 72 -98 58 -119 -29 -48 -178 -57 -1130 -69 -427 -5
-778 -11 -779 -12 -1 -2 -4 -2221 -6 -4933 l-4 -4930 330 -3 c566 -5 1290 17
1755 54 1014 79 1909 283 2658 603 1052 450 1885 1190 2323 2063 222 442 373
1010 429 1609 18 183 8 1043 -14 1209 -56 434 -113 746 -195 1050 -92 342
-159 522 -348 937 -93 204 -113 257 -102 264 8 4 61 25 119 44 265 91 433 197
630 394 152 153 216 238 320 426 141 253 268 427 523 712 72 82 168 191 212
244 278 334 365 546 365 897 0 165 -11 203 -75 269 -45 47 -56 53 -92 53 -52
0 -86 -36 -109 -118 -24 -84 -79 -183 -131 -235 -63 -63 -139 -101 -330 -163
-175 -58 -260 -96 -313 -141 -85 -71 -151 -228 -169 -396 -5 -49 -14 -94 -20
-100 -15 -15 -38 7 -52 51 -27 88 -146 229 -223 266 -60 29 -132 40 -391 61
-104 9 -248 23 -320 33 -193 25 -238 23 -272 -11 -25 -25 -28 -34 -27 -95 3
-139 90 -335 209 -472 114 -132 307 -278 535 -404 193 -108 290 -167 290 -176
0 -27 -283 -136 -433 -166 -233 -47 -472 48 -815 324 -190 152 -522 463 -982
918 l-314 312 42 92 c120 263 257 378 597 499 74 27 145 56 159 65 141 92
-168 322 -598 445 -205 59 -249 64 -470 58 -226 -6 -261 -12 -612 -111 -108
-31 -202 -56 -210 -56 -7 0 -87 56 -179 125 -314 235 -570 372 -876 469 -280
89 -664 128 -894 91z m614 -170 c137 -21 272 -57 378 -100 207 -83 589 -319
860 -530 l72 -57 183 61 c330 108 496 142 698 142 99 0 163 -5 239 -21 185
-37 508 -158 576 -215 l30 -25 -22 -19 c-12 -10 -64 -35 -115 -56 -229 -91
-371 -211 -489 -411 -57 -97 -97 -196 -111 -276 l-11 -60 184 -185 c240 -241
780 -760 939 -903 494 -444 709 -555 1039 -537 129 7 245 29 371 69 238 76
327 149 300 248 -16 59 -94 122 -306 245 -345 200 -495 312 -593 444 -73 99
-133 220 -139 283 -4 43 -3 48 16 48 11 0 58 -15 104 -32 l83 -33 270 0 270 0
47 -33 c66 -45 126 -135 209 -309 39 -81 86 -180 105 -219 39 -82 85 -137 107
-128 35 13 49 85 77 390 40 433 69 474 407 575 214 64 271 94 384 208 78 79
98 104 108 143 8 26 22 55 32 64 18 16 19 15 29 -10 34 -91 -22 -371 -110
-546 -66 -132 -204 -309 -477 -616 -256 -287 -364 -433 -478 -644 -36 -69 -96
-170 -133 -225 -86 -131 -263 -308 -392 -394 -293 -195 -743 -334 -1130 -348
-544 -20 -1024 108 -1745 465 -266 131 -430 227 -602 350 -287 206 -545 439
-842 760 -68 73 -137 140 -153 148 -39 20 -74 7 -121 -46 -45 -49 -75 -115
-135 -295 -58 -172 -85 -240 -102 -250 -26 -16 -195 200 -278 355 -63 118 -88
228 -122 537 -26 231 -39 281 -87 329 -151 151 -638 365 -1203 529 -265 76
-384 101 -661 135 -318 40 -489 82 -489 120 0 12 32 8 217 -26 165 -31 300
-43 473 -44 250 0 425 35 600 123 82 40 106 57 108 75 5 33 -22 29 -146 -22
-162 -66 -283 -92 -476 -102 -250 -13 -732 57 -618 90 21 6 177 23 287 31 444
33 498 53 766 276 366 305 541 394 906 458 67 12 164 26 215 31 134 13 474 4
597 -15z m-604 -2247 c59 -241 131 -406 237 -550 110 -147 232 -238 321 -238
75 0 105 53 178 319 47 170 64 205 103 209 36 4 60 -16 336 -283 466 -451 622
-566 1115 -821 467 -241 973 -447 1205 -489 59 -10 208 -18 485 -25 220 -6
477 -13 572 -16 l171 -6 65 -127 c297 -577 453 -1133 553 -1971 49 -414 44
-1216 -10 -1560 -104 -655 -284 -1140 -602 -1620 -485 -732 -1345 -1359 -2349
-1713 -931 -328 -1981 -480 -3700 -537 -171 -6 -338 -13 -372 -16 l-63 -6 0
4781 0 4781 864 0 864 0 27 -112z M2045 11385 c-29 -28 -32 -62 -9 -129 21
-60 55 -80 85 -50 38 38 37 146 -2 185 -25 25 -45 24 -74 -6z M2517 7873 c-4
-3 -7 -1353 -7 -3000 l0 -2993 29 0 c104 0 506 52 855 111 772 129 1209 259
1541 459 294 177 627 513 802 808 281 475 394 1026 380 1844 -5 333 -20 462
-76 684 -81 320 -246 676 -426 919 -209 281 -594 639 -841 783 -289 167 -794
299 -1369 357 -268 27 -871 46 -888 28z m773 -214 c770 -43 1248 -191 1645
-512 100 -81 349 -334 439 -447 325 -407 529 -914 567 -1415 17 -217 7 -629
-20 -825 -87 -631 -237 -1026 -531 -1394 -313 -393 -770 -636 -1492 -795 -386
-85 -978 -181 -1115 -181 l-73 0 0 2797 0 2796 198 -7 c108 -3 280 -11 382
-17z M7966 194 c-10 -47 -15 -88 -12 -91 5 -6 9 7 30 110 7 37 10 67 6 67 -4
0 -15 -39 -24 -86z M8280 270 c0 -5 5 -10 10 -10 6 0 10 5 10 10 0 6 -4 10
-10 10 -5 0 -10 -4 -10 -10z M8826 194 c-10 -47 -15 -88 -12 -91 5 -6 9 7 30
110 7 37 10 67 6 67 -4 0 -15 -39 -24 -86z M8906 269 c-3 -8 -10 -41 -16 -74
-6 -33 -14 -68 -16 -77 -3 -10 -1 -18 3 -18 10 0 46 171 38 178 -2 3 -7 -1 -9
-9z M7669 241 c-38 -38 -41 -101 -7 -125 29 -20 79 -20 104 0 18 14 18 15 1
10 -53 -17 -69 -17 -92 -2 -69 45 21 166 94 126 12 -6 21 -7 21 -1 0 12 -25
21 -62 21 -19 0 -39 -10 -59 -29z M8670 189 c-28 -45 -49 -83 -47 -85 2 -3 12
7 21 21 14 21 24 25 66 25 43 0 50 -3 50 -19 0 -11 5 -23 10 -26 6 -3 10 -3
10 1 0 20 -44 164 -51 164 -4 0 -30 -37 -59 -81z m75 4 l7 -33 -42 0 c-42 0
-42 0 -28 23 8 12 21 32 29 44 15 25 22 18 34 -34z M7820 210 c-22 -22 -27
-79 -8 -98 19 -19 66 -14 88 8 22 22 27 79 8 98 -19 19 -66 14 -88 -8z m71 0
c25 -14 25 -54 -1 -80 -23 -23 -33 -24 -61 -10 -25 14 -25 54 1 80 23 23 33
24 61 10z M8030 210 c-22 -22 -27 -79 -8 -98 19 -19 66 -14 88 8 22 22 27 79
8 98 -19 19 -66 14 -88 -8z m71 0 c25 -14 25 -54 -1 -80 -23 -23 -33 -24 -61
-10 -25 14 -25 54 1 80 23 23 33 24 61 10z M8176 204 c-3 -16 -8 -47 -11 -69
-8 -51 10 -26 19 27 5 27 15 42 34 53 18 10 22 14 10 15 -9 0 -20 -5 -24 -11
-5 -8 -9 -8 -14 1 -5 8 -10 3 -14 -16z M8277 223 c-2 -4 -7 -26 -11 -48 -4
-22 -9 -48 -12 -57 -3 -10 -1 -18 4 -18 4 0 14 28 20 62 11 58 10 81 -1 61z
M8335 220 c-1 -3 -5 -23 -9 -45 -4 -22 -9 -48 -12 -57 -3 -10 -1 -18 4 -18 5
0 13 20 17 45 7 53 44 87 74 68 17 -11 19 -28 8 -80 -4 -18 -3 -33 2 -33 16 0
24 99 11 115 -12 14 -87 18 -95 5z M8500 210 c-22 -22 -27 -79 -8 -98 7 -7 24
-12 38 -12 14 0 31 5 38 12 9 9 12 8 12 -5 0 -9 -12 -24 -26 -34 -21 -13 -32
-15 -55 -6 -16 6 -29 8 -29 3 0 -24 81 -27 102 -2 18 19 50 162 37 162 -5 0
-9 -5 -9 -10 0 -7 -6 -7 -19 0 -30 16 -59 12 -81 -10z m71 0 c29 -16 25 -65
-6 -86 -56 -37 -103 28 -55 76 23 23 33 24 61 10z M9001 211 c-23 -23 -28 -80
-9 -99 19 -19 88 -13 88 9 0 5 -11 4 -24 -2 -54 -25 -89 38 -46 81 23 23 33
24 62 9 16 -9 19 -8 16 3 -8 22 -64 22 -87 -1z M9130 210 c-22 -22 -27 -79 -8
-98 19 -19 66 -14 88 8 22 22 27 79 8 98 -19 19 -66 14 -88 -8z m71 0 c25 -14
25 -54 -1 -80 -23 -23 -33 -24 -61 -10 -25 14 -25 54 1 80 23 23 33 24 61 10z
M9276 201 c-3 -14 -8 -44 -11 -66 -8 -51 10 -26 19 27 8 41 35 63 66 53 22 -7
24 -21 11 -77 -5 -22 -5 -38 0 -38 5 0 9 6 9 13 0 68 51 125 85 97 15 -13 15
-35 -1 -92 -3 -10 -1 -18 4 -18 6 0 13 23 17 50 9 63 -5 84 -49 76 -17 -4 -35
-6 -41 -6 -101 8 -104 7 -109 -19z M8920 110 c0 -5 5 -10 10 -10 6 0 10 5 10
10 0 6 -4 10 -10 10 -5 0 -10 -4 -10 -10z"/>
</g>
</svg>
